<mxfile host="65bd71144e">
    <diagram id="fafdHb4x8sjydgMXNOce" name="Page-1">
        <mxGraphModel dx="1443" dy="788" grid="1" gridSize="10" guides="1" tooltips="1" connect="1" arrows="1" fold="1" page="1" pageScale="1" pageWidth="850" pageHeight="1100" math="0" shadow="0">
            <root>
                <mxCell id="0"/>
                <mxCell id="1" parent="0"/>
                <mxCell id="2" value="Plug in USB with install script" style="whiteSpace=wrap;html=1;" vertex="1" parent="1">
                    <mxGeometry x="130" y="170" width="160" height="70" as="geometry"/>
                </mxCell>
                <mxCell id="3" value="" style="shape=singleArrow;whiteSpace=wrap;html=1;arrowWidth=0.4;arrowSize=0.4;rotation=90;" vertex="1" parent="1">
                    <mxGeometry x="197.5" y="252.5" width="25" height="20" as="geometry"/>
                </mxCell>
                <mxCell id="4" value="GUI installs depency and shows progress bar" style="whiteSpace=wrap;html=1;" vertex="1" parent="1">
                    <mxGeometry x="130" y="280" width="160" height="70" as="geometry"/>
                </mxCell>
                <mxCell id="5" value="" style="shape=singleArrow;whiteSpace=wrap;html=1;arrowWidth=0.4;arrowSize=0.4;rotation=90;" vertex="1" parent="1">
                    <mxGeometry x="197.5" y="360" width="25" height="20" as="geometry"/>
                </mxCell>
                <mxCell id="6" value="Node Config GUI opens and user enters in custom information" style="whiteSpace=wrap;html=1;" vertex="1" parent="1">
                    <mxGeometry x="130" y="387.5" width="160" height="70" as="geometry"/>
                </mxCell>
                <mxCell id="7" value="" style="shape=singleArrow;whiteSpace=wrap;html=1;arrowWidth=0.4;arrowSize=0.4;rotation=90;" vertex="1" parent="1">
                    <mxGeometry x="197.5" y="470" width="25" height="20" as="geometry"/>
                </mxCell>
                <mxCell id="8" value="Config files are created and have the proper security features" style="whiteSpace=wrap;html=1;" vertex="1" parent="1">
                    <mxGeometry x="130" y="497.5" width="160" height="70" as="geometry"/>
                </mxCell>
                <mxCell id="10" value="docker images are pulled and containers are started with secure binaries" style="whiteSpace=wrap;html=1;" vertex="1" parent="1">
                    <mxGeometry x="130" y="607.5" width="160" height="70" as="geometry"/>
                </mxCell>
                <mxCell id="11" value="" style="shape=singleArrow;whiteSpace=wrap;html=1;arrowWidth=0.4;arrowSize=0.4;rotation=90;" vertex="1" parent="1">
                    <mxGeometry x="197.5" y="580" width="25" height="20" as="geometry"/>
                </mxCell>
                <mxCell id="12" value="localhost:8080 trex desktop shortcut is created for user to click on" style="whiteSpace=wrap;html=1;" vertex="1" parent="1">
                    <mxGeometry x="130" y="717.5" width="160" height="70" as="geometry"/>
                </mxCell>
                <mxCell id="13" value="" style="shape=singleArrow;whiteSpace=wrap;html=1;arrowWidth=0.4;arrowSize=0.4;rotation=90;" vertex="1" parent="1">
                    <mxGeometry x="197.5" y="690" width="25" height="20" as="geometry"/>
                </mxCell>
            </root>
        </mxGraphModel>
    </diagram>
</mxfile>